<?xml version="1.0" encoding="UTF-8" standalone="no"?><!-- Generator: Gravit.io --><svg xmlns="http://www.w3.org/2000/svg" xmlns:xlink="http://www.w3.org/1999/xlink" style="isolation:isolate" viewBox="0 0 41 42" width="41pt" height="42pt"><defs><clipPath id="_clipPath_439AJB1bMHK3oK8kTzKrZ9iUQpHjkkZI"><rect width="41" height="42"/></clipPath></defs><g clip-path="url(#_clipPath_439AJB1bMHK3oK8kTzKrZ9iUQpHjkkZI)"><g><path d=" M 24.171 15.289 C 24.171 17.091 22.71 18.552 20.908 18.552 C 19.106 18.552 17.645 17.091 17.645 15.289 C 17.645 13.487 19.106 12.026 20.908 12.026 C 22.71 12.026 24.171 13.487 24.171 15.289 Z " fill="none" vector-effect="non-scaling-stroke" stroke-width="2.021" stroke="rgb(137,137,137)" strokeLinejoin="miter" stroke-linecap="butt" strokeMiterlimit="4"/><path d=" M 17.645 21.816 L 14.203 24.11 C 13.295 24.716 12.75 25.735 12.75 26.826 L 12.75 28.451 C 12.75 29.292 13.432 29.974 14.273 29.974 L 20.908 29.974" fill="none" vector-effect="non-scaling-stroke" stroke-width="2.021" stroke="rgb(137,137,137)" strokeLinejoin="round" stroke-linecap="round" strokeMiterlimit="4"/><path d=" M 28.25 15.289 L 28.25 22.632 M 28.25 22.632 L 28.25 26.278 C 28.25 27.004 27.733 27.637 27.008 27.614 C 25.808 27.577 24.171 27.146 24.171 25.079 C 24.171 21.816 28.25 22.632 28.25 22.632 Z " fill="none" vector-effect="non-scaling-stroke" stroke-width="1.684" stroke="rgb(137,137,137)" strokeLinejoin="round" stroke-linecap="round" strokeMiterlimit="4"/></g></g></svg>