<?xml version="1.0" encoding="UTF-8" standalone="no"?><!-- Generator: Gravit.io --><svg xmlns="http://www.w3.org/2000/svg" xmlns:xlink="http://www.w3.org/1999/xlink" style="isolation:isolate" viewBox="0 0 41 42" width="41pt" height="42pt"><defs><clipPath id="_clipPath_0N9bbNkC5AGNnrDXBTg2MzQApRLKkHkc"><rect width="41" height="42"/></clipPath></defs><g clip-path="url(#_clipPath_0N9bbNkC5AGNnrDXBTg2MzQApRLKkHkc)"><g><path d=" M 29.577 15.107 C 29.577 16.967 28.069 18.474 26.209 18.474 C 24.35 18.474 22.842 16.967 22.842 15.107 C 22.842 13.247 24.35 11.739 26.209 11.739 C 28.069 11.739 29.577 13.247 29.577 15.107 Z " fill="rgb(224,224,224)" vector-effect="non-scaling-stroke" stroke-width="2.021" stroke="rgb(224,224,224)" strokeLinejoin="miter" stroke-linecap="butt" strokeMiterlimit="4"/><path d=" M 19.29 24.21 L 20.04 23.71 C 21.867 22.492 24.014 21.842 26.209 21.842 C 28.405 21.842 30.552 22.492 32.379 23.71 L 33.129 24.21 C 34.066 24.834 34.628 25.886 34.628 27.012 L 34.628 28.689 C 34.628 29.557 33.925 30.261 33.057 30.261 L 26.209 30.261 L 19.362 30.261 C 18.494 30.261 17.79 29.557 17.79 28.689 L 17.79 27.012 C 17.79 25.886 18.353 24.834 19.29 24.21 Z " fill="rgb(224,224,224)" vector-effect="non-scaling-stroke" stroke-width="2.021" stroke="rgb(224,224,224)" strokeLinejoin="round" stroke-linecap="round" strokeMiterlimit="4"/><path d=" M 18.158 15.107 C 18.158 16.967 16.65 18.474 14.791 18.474 C 12.931 18.474 11.423 16.967 11.423 15.107 C 11.423 13.247 12.931 11.739 14.791 11.739 C 16.65 11.739 18.158 13.247 18.158 15.107 Z " fill="rgb(224,224,224)" vector-effect="non-scaling-stroke" stroke-width="2.021" stroke="rgb(224,224,224)" strokeLinejoin="miter" stroke-linecap="butt" strokeMiterlimit="4"/><path d=" M 14.791 21.842 L 14.791 21.842 C 12.595 21.842 10.448 22.492 8.621 23.71 L 7.871 24.21 C 6.934 24.834 6.372 25.886 6.372 27.012 L 6.372 28.689 C 6.372 29.557 7.075 30.261 7.943 30.261 L 14.004 30.261" fill="rgb(224,224,224)" vector-effect="non-scaling-stroke" stroke-width="2.021" stroke="rgb(224,224,224)" strokeLinejoin="round" stroke-linecap="round" strokeMiterlimit="4"/></g></g></svg>