<?xml version="1.0" encoding="UTF-8" standalone="no"?><!-- Generator: Gravit.io --><svg xmlns="http://www.w3.org/2000/svg" xmlns:xlink="http://www.w3.org/1999/xlink" style="isolation:isolate" viewBox="0 0 41 42" width="41pt" height="42pt"><defs><clipPath id="_clipPath_SzNkAnnwUKUHwUFe1GXxuP6wo0EwsPOQ"><rect width="41" height="42"/></clipPath></defs><g clip-path="url(#_clipPath_SzNkAnnwUKUHwUFe1GXxuP6wo0EwsPOQ)"><g><path d=" M 28.028 25.911 L 12.972 25.911 C 11.783 25.911 11.133 24.524 11.894 23.61 L 13.149 22.104 C 13.364 21.846 13.472 21.519 13.468 21.183 C 13.448 19.063 13.82 11.178 20.5 11.178 C 27.18 11.178 27.552 19.063 27.532 21.183 C 27.528 21.519 27.636 21.846 27.851 22.104 L 29.106 23.61 C 29.867 24.524 29.218 25.911 28.028 25.911 Z " fill="none" vector-effect="non-scaling-stroke" stroke-width="1.684" stroke="rgb(137,137,137)" stroke-linejoin="round" stroke-linecap="round" stroke-miterlimit="4"/><path d=" M 16.992 28.717 C 16.992 28.717 17.694 30.822 20.5 30.822 C 23.306 30.822 24.008 28.717 24.008 28.717" fill="none" vector-effect="non-scaling-stroke" stroke-width="1.684" stroke="rgb(137,137,137)" stroke-linejoin="round" stroke-linecap="round" stroke-miterlimit="4"/></g></g></svg>