<?xml version="1.0" encoding="UTF-8" standalone="no"?><!-- Generator: Gravit.io --><svg xmlns="http://www.w3.org/2000/svg" xmlns:xlink="http://www.w3.org/1999/xlink" style="isolation:isolate" viewBox="0 0 41 42" width="41pt" height="42pt"><defs><clipPath id="_clipPath_eR4Z8UoFWgBnXFA7pgLgB9nCcVG1IhO4"><rect width="41" height="42"/></clipPath></defs><g clip-path="url(#_clipPath_eR4Z8UoFWgBnXFA7pgLgB9nCcVG1IhO4)"><path d=" M 22.309 13.723 L 20.942 12.357 M 22.309 13.723 L 16.275 19.758 C 16.164 19.868 16.019 19.939 15.863 19.958 L 13.384 20.259 C 12.803 20.33 12.559 21.038 12.973 21.452 L 16.511 24.989 M 22.309 13.723 L 27.777 19.191 M 29.143 20.558 L 27.777 19.191 M 27.777 19.191 L 21.742 25.225 C 21.632 25.336 21.561 25.481 21.542 25.637 L 21.241 28.116 C 21.17 28.697 20.462 28.941 20.048 28.527 L 16.511 24.989 M 16.511 24.989 L 11.857 29.643" fill="none" vector-effect="non-scaling-stroke" stroke-width="2" stroke="rgb(137,137,137)" strokeLinejoin="round" stroke-linecap="round" strokeMiterlimit="4"/></g></svg>