<?xml version="1.0" encoding="UTF-8" standalone="no"?><!-- Generator: Gravit.io --><svg xmlns="http://www.w3.org/2000/svg" xmlns:xlink="http://www.w3.org/1999/xlink" style="isolation:isolate" viewBox="0 0 41 42" width="41pt" height="42pt"><defs><clipPath id="_clipPath_TCvTlz0hm1AYOlsMVaEd2GFcUZBe6ig6"><rect width="41" height="42"/></clipPath></defs><g clip-path="url(#_clipPath_TCvTlz0hm1AYOlsMVaEd2GFcUZBe6ig6)"><g><path d=" M 20.301 15.616 L 20.301 20.402 C 20.301 22.384 21.908 23.992 23.89 23.992 C 25.873 23.992 27.48 22.384 27.48 20.402 L 27.48 19.604 L 27.48 15.616 C 27.48 13.633 25.873 12.026 23.89 12.026 C 21.908 12.026 20.301 13.633 20.301 15.616 Z " fill="none" vector-effect="non-scaling-stroke" stroke-width="2.016" stroke="rgb(137,137,137)" strokeLinejoin="miter" stroke-linecap="round" strokeMiterlimit="4"/><path d=" M 17.11 20.8 C 17.11 20.8 17.907 27.182 23.89 27.182 M 23.89 27.182 C 29.873 27.182 30.671 20.8 30.671 20.8 M 23.89 27.182 L 23.89 29.974" fill="none" vector-effect="non-scaling-stroke" stroke-width="2.016" stroke="rgb(137,137,137)" strokeLinejoin="miter" stroke-linecap="round" strokeMiterlimit="4"/><line x1="10.329" y1="16.094" x2="15.076" y2="16.094" vector-effect="non-scaling-stroke" stroke-width="2.016" stroke="rgb(137,137,137)" strokeLinejoin="miter" stroke-linecap="round" strokeMiterlimit="4"/><line x1="10.329" y1="21.519" x2="13.72" y2="21.519" vector-effect="non-scaling-stroke" stroke-width="2.016" stroke="rgb(137,137,137)" strokeLinejoin="miter" stroke-linecap="round" strokeMiterlimit="4"/><line x1="10.329" y1="26.943" x2="15.076" y2="26.943" vector-effect="non-scaling-stroke" stroke-width="2.016" stroke="rgb(137,137,137)" strokeLinejoin="miter" stroke-linecap="round" strokeMiterlimit="4"/></g></g></svg>