<?xml version="1.0" encoding="UTF-8" standalone="no"?><!-- Generator: Gravit.io --><svg xmlns="http://www.w3.org/2000/svg" xmlns:xlink="http://www.w3.org/1999/xlink" style="isolation:isolate" viewBox="0 0 41 42" width="41pt" height="42pt"><defs><clipPath id="_clipPath_lOnOqcMZk9GDAljJhI817NHLX3bmyyGL"><rect width="41" height="42"/></clipPath></defs><g clip-path="url(#_clipPath_lOnOqcMZk9GDAljJhI817NHLX3bmyyGL)"><g><path d=" M 25.282 13.727 C 25.491 14.171 26.02 14.361 26.463 14.152 C 26.907 13.944 27.097 13.415 26.888 12.971 L 25.282 13.727 Z  M 14.353 17.45 C 15.229 17.308 15.229 17.308 15.23 17.308 C 15.23 17.308 15.23 17.309 15.23 17.309 C 15.23 17.309 15.23 17.31 15.23 17.31 C 15.23 17.31 15.23 17.31 15.23 17.309 C 15.23 17.308 15.229 17.306 15.228 17.301 C 15.227 17.293 15.225 17.278 15.223 17.257 C 15.217 17.216 15.21 17.151 15.202 17.066 C 15.187 16.896 15.172 16.648 15.175 16.348 C 15.18 15.743 15.257 14.96 15.527 14.194 C 15.794 13.435 16.241 12.714 16.981 12.177 C 17.719 11.643 18.823 11.237 20.5 11.237 L 20.5 9.462 C 18.528 9.462 17.038 9.943 15.939 10.74 C 14.843 11.535 14.209 12.589 13.852 13.605 C 13.497 14.614 13.406 15.606 13.4 16.332 C 13.396 16.698 13.414 17.005 13.434 17.223 C 13.444 17.333 13.454 17.42 13.462 17.483 C 13.466 17.514 13.469 17.539 13.472 17.557 C 13.473 17.567 13.474 17.574 13.475 17.58 C 13.476 17.583 13.476 17.585 13.476 17.587 C 13.477 17.588 13.477 17.589 13.477 17.59 C 13.477 17.59 13.477 17.591 13.477 17.591 C 13.477 17.591 13.477 17.592 14.353 17.45 Z  M 20.5 11.237 C 22.005 11.237 23.047 11.564 23.775 12.014 C 24.501 12.463 24.973 13.07 25.282 13.727 L 26.888 12.971 C 26.457 12.054 25.772 11.162 24.708 10.504 C 23.647 9.848 22.266 9.462 20.5 9.462 L 20.5 11.237 Z " fill="rgb(137,137,137)"/><path d=" M 26.713 17.893 L 14.287 17.893 C 12.816 17.893 11.624 19.086 11.624 20.556 L 11.624 29.876 C 11.624 31.346 12.816 32.538 14.287 32.538 L 26.713 32.538 C 28.184 32.538 29.376 31.346 29.376 29.876 L 29.376 20.556 C 29.376 19.086 28.184 17.893 26.713 17.893 Z " fill="none" vector-effect="non-scaling-stroke" stroke-width="1.775" stroke="rgb(137,137,137)" stroke-linejoin="miter" stroke-linecap="butt" stroke-miterlimit="4"/><circle vector-effect="non-scaling-stroke" cx="20.499899999999997" cy="25.437835" r="2.66272" fill="none" stroke-width="1.775" stroke="rgb(137,137,137)" stroke-linejoin="miter" stroke-linecap="butt" stroke-miterlimit="4"/></g></g></svg>