<?xml version="1.0" encoding="UTF-8" standalone="no"?><!-- Generator: Gravit.io --><svg xmlns="http://www.w3.org/2000/svg" xmlns:xlink="http://www.w3.org/1999/xlink" style="isolation:isolate" viewBox="0 0 41 42" width="41pt" height="42pt"><defs><clipPath id="_clipPath_vv6u3TxnIqL1ueREDILImJQKi0SeqbGR"><rect width="41" height="42"/></clipPath></defs><g clip-path="url(#_clipPath_vv6u3TxnIqL1ueREDILImJQKi0SeqbGR)"><clipPath id="_clipPath_LcgORC0xLyp3Uz5Yuh6cMbDMwTMnxl2f"><rect x="8.714" y="9.214" width="23.573" height="23.573" transform="matrix(1,0,0,1,0,0)" fill="rgb(255,255,255)"/></clipPath><g clip-path="url(#_clipPath_LcgORC0xLyp3Uz5Yuh6cMbDMwTMnxl2f)"><g><path d=" M 13.15 24.614 C 10.172 23.125 10.172 18.874 13.15 17.385 L 21.883 13.019 C 22.33 12.795 22.857 13.12 22.857 13.621 L 22.857 28.378 C 22.857 28.878 22.33 29.204 21.883 28.98 L 13.15 24.614 Z " fill="none" vector-effect="non-scaling-stroke" stroke-width="2.021" stroke="rgb(137,137,137)" stroke-linejoin="miter" stroke-linecap="butt" stroke-miterlimit="4"/><path d=" M 27.235 26.051 C 28.024 25.836 28.753 25.359 29.335 24.664 C 30.147 23.692 30.603 22.374 30.603 21 C 30.603 19.626 30.147 18.308 29.335 17.337 C 28.753 16.641 28.024 16.164 27.235 15.949" fill="none" vector-effect="non-scaling-stroke" stroke-width="1.684" stroke="rgb(137,137,137)" stroke-linejoin="miter" stroke-linecap="round" stroke-miterlimit="4"/><path d=" M 26.393 20.489 C 26.393 20.307 26.547 20.153 26.715 20.223 C 26.818 20.265 26.91 20.327 26.989 20.405 C 27.067 20.483 27.129 20.576 27.171 20.678 C 27.213 20.78 27.235 20.89 27.235 21 C 27.235 21.111 27.213 21.221 27.171 21.323 C 27.129 21.425 27.067 21.518 26.989 21.596 C 26.91 21.674 26.818 21.736 26.715 21.778 C 26.547 21.848 26.393 21.694 26.393 21.512 L 26.393 21 L 26.393 20.489 Z " fill="rgb(137,137,137)" vector-effect="non-scaling-stroke" stroke-width="0.842" stroke="rgb(137,137,137)" stroke-linejoin="miter" stroke-linecap="butt" stroke-miterlimit="4"/></g></g></g></svg>